<svg xmlns="http://www.w3.org/2000/svg" width="100" height="15" viewBox="0 0 100 15" id="greenlight-logo-beta">
  <g>
    <g>
      <g>
        <path d="M32.4,7V5.8h3.8V9.5a5,5,0,0,1-4,1.9,5,5,0,0,1-5.3-5.1A5.2,5.2,0,0,1,36,2.9l-1,.8a3.9,3.9,0,0,0-2.8-1.3,3.8,3.8,0,0,0-3.9,3.9,3.7,3.7,0,0,0,3.9,3.9,3.9,3.9,0,0,0,2.7-1.1V7Z" fill="#666"/>
        <path d="M39.5,5.3A2.3,2.3,0,0,1,41.3,4h.8l-.2,1.4-.7-.2c-.7,0-1.2.4-1.7,1.2v4.7H38.2v-7h1.3Z" fill="#666"/>
        <path d="M43.9,8a2.3,2.3,0,0,0,2.3,2.3,2.1,2.1,0,0,0,2-1.2l1,.6a3.3,3.3,0,0,1-3.1,1.7,3.4,3.4,0,0,1-3.5-3.7A3.5,3.5,0,0,1,46.1,4a3.1,3.1,0,0,1,3.2,3.3,1.7,1.7,0,0,1-.1.7ZM44,7h4a2,2,0,0,0-1.9-1.9A2.1,2.1,0,0,0,44,7Z" fill="#666"/>
        <path d="M51.9,8a2.3,2.3,0,0,0,2.3,2.3,2.4,2.4,0,0,0,2.1-1.2l.9.6a3.3,3.3,0,0,1-3.1,1.7,3.4,3.4,0,0,1-3.5-3.7A3.6,3.6,0,0,1,54.1,4a3.1,3.1,0,0,1,3.2,3.3V8ZM52,7h4a2,2,0,0,0-1.9-1.9A2.2,2.2,0,0,0,52,7Z" fill="#666"/>
        <path d="M60.2,4.2V5.3A2.6,2.6,0,0,1,62.5,4a2.3,2.3,0,0,1,2,.9,4.3,4.3,0,0,1,.6,2.7v3.6H63.8V7.7a3.8,3.8,0,0,0-.3-1.9,1.2,1.2,0,0,0-1.2-.6,2.7,2.7,0,0,0-2.1,1.3v4.7H58.9v-7Z" fill="#666"/>
        <path d="M69.2,11.2H67.9V.7h1.3Z" fill="#666"/>
        <path d="M71.5,2.8V1.4h1.3V2.8Zm0,8.4v-7h1.3v7Z" fill="#666"/>
        <path d="M81.4,10.8a3.6,3.6,0,0,1-.4,1.9,3.2,3.2,0,0,1-3.1,1.6,5.4,5.4,0,0,1-3.1-.9l.4-1.1a4.8,4.8,0,0,0,2.6.9,2,2,0,0,0,2.3-2.1v-1a2.8,2.8,0,0,1-2.2,1.1,3.5,3.5,0,0,1-3.5-3.6A3.6,3.6,0,0,1,77.9,4a3,3,0,0,1,2.2,1V4.2h1.3ZM80.1,6.3a2.6,2.6,0,0,0-2-1.1,2.3,2.3,0,0,0-2.4,2.4A2.3,2.3,0,0,0,78,10a2.2,2.2,0,0,0,2.1-1.3Z" fill="#666"/>
        <path d="M84.3,5.3A2.6,2.6,0,0,1,86.5,4a2.3,2.3,0,0,1,2.1.9,4.3,4.3,0,0,1,.6,2.7v3.6H87.9V7.7a3.8,3.8,0,0,0-.3-1.9,1.2,1.2,0,0,0-1.2-.6,2.7,2.7,0,0,0-2.1,1.3v4.7H83V.7h1.3Z" fill="#666"/>
        <path d="M92.3,5.3V9c0,.8.3,1.2,1,1.2l.8-.2.3,1a2.5,2.5,0,0,1-1.3.4,2,2,0,0,1-1.9-1.1A6.8,6.8,0,0,1,91,8.8V5.3h-.9V4.2H91V2.5h1.3V4.2h1.9V5.3Z" fill="#666"/>
      </g>
      <g>
        <path d="M17.7,2a4.5,4.5,0,0,0-2.6.9,5.6,5.6,0,0,1,1.2,3.4,5.3,5.3,0,0,1-1.2,3.3,4,4,0,0,0,2.6,1A4.3,4.3,0,0,0,22,6.3,4.3,4.3,0,0,0,17.7,2Z" fill="#f44336"/>
        <circle cx="4.3" cy="6.3" r="4.3" fill="#0db9a5"/>
        <path d="M11,2a5.1,5.1,0,0,0-2.7.9A5,5,0,0,1,9.5,6.3,4.8,4.8,0,0,1,8.3,9.6a4.5,4.5,0,0,0,2.7,1,4.4,4.4,0,0,0,4.3-4.3A4.3,4.3,0,0,0,11,2Z" fill="#ffb817"/>
      </g>
    </g>
    <path d="M97.2,5.8c0,.3-.1.7-.1,1h-.4V6.7a3.4,3.4,0,0,1,.1-.9l.5-2.9c.2-.8.5-1.7,1.6-1.7s1.1.3,1.1.9a1.2,1.2,0,0,1-.8,1.1h0a1,1,0,0,1,.8,1,1.4,1.4,0,0,1-1.5,1.4,1.6,1.6,0,0,1-1.2-.4h0Zm1.2-2.3V3.2c.9-.1,1.2-.7,1.2-1a.6.6,0,0,0-.7-.7c-.6,0-1,.5-1.1,1.4l-.4,2a1.2,1.2,0,0,0,1,.5,1.1,1.1,0,0,0,1.2-1.1c0-.5-.5-.8-1.1-.8Z" fill="#666"/>
  </g>
</svg>
